# xmcd
#
# Track frame offsets: 
#        150
#        18796
#        46061
#        66366
#        87405
#        106251
#        134523
#        157581
#        177740
#        200555
#        227258
#        245347
#
# Disc length: 3543 seconds
#
# Revision: 0
# Processed by: cddbd v1.5.2PL0 Copyright (c) Steve Scherf et al.
# Submitted via: ExactAudioCopy v0.99pb4
#
DISCID=930dd50c
DTITLE=Blue Stew -  Destination  The Blues
DYEAR=2003
DGENRE=Blues
TTITLE0=To Satisfy You
TTITLE1=Big Dance Woman
TTITLE2=Human Race
TTITLE3=Love Potion Number Nine
TTITLE4=Rio Grande
TTITLE5=Keep Moving Along
TTITLE6=She Doesn't Come Around Anymore
TTITLE7=Don't You Want A Man Like Me
TTITLE8=If It Don't Kill You, It Will Make You Strong
TTITLE9=She's Fine
TTITLE10=My Destination Is The Blue
TTITLE11=It Cuts To The Bone
EXTD=
EXTT0=
EXTT1=
EXTT2=
EXTT3=
EXTT4=
EXTT5=
EXTT6=
EXTT7=
EXTT8=
EXTT9=
EXTT10=
EXTT11=
PLAYORDER=
